<mxfile host="app.diagrams.net" modified="2022-05-13T04:15:42.097Z" agent="5.0 (Macintosh; Intel Mac OS X 10_15_7) AppleWebKit/537.36 (KHTML, like Gecko) Chrome/101.0.4951.54 Safari/537.36" etag="xLr3ghK7SSMszgFxA1R1" version="17.4.6" type="github">
  <diagram id="uobTdvGDPKRyvpmwHlBW" name="Page-1">
    <mxGraphModel dx="1039" dy="906" grid="1" gridSize="10" guides="1" tooltips="1" connect="1" arrows="1" fold="1" page="1" pageScale="1" pageWidth="827" pageHeight="1169" math="0" shadow="0">
      <root>
        <mxCell id="0" />
        <mxCell id="1" parent="0" />
        <mxCell id="CeL9gRLWSD85e0RHvUJz-43" value="" style="rounded=0;whiteSpace=wrap;html=1;dashed=1;" vertex="1" parent="1">
          <mxGeometry x="2.5" y="660" width="1165" height="390" as="geometry" />
        </mxCell>
        <mxCell id="CeL9gRLWSD85e0RHvUJz-34" value="" style="rounded=0;whiteSpace=wrap;html=1;dashed=1;" vertex="1" parent="1">
          <mxGeometry x="632.5" y="680" width="207.5" height="330" as="geometry" />
        </mxCell>
        <mxCell id="CeL9gRLWSD85e0RHvUJz-33" value="" style="rounded=0;whiteSpace=wrap;html=1;dashed=1;" vertex="1" parent="1">
          <mxGeometry x="390" y="680" width="230" height="330" as="geometry" />
        </mxCell>
        <mxCell id="CeL9gRLWSD85e0RHvUJz-32" value="" style="rounded=0;whiteSpace=wrap;html=1;dashed=1;" vertex="1" parent="1">
          <mxGeometry x="35" y="680" width="345" height="330" as="geometry" />
        </mxCell>
        <mxCell id="UNI3ZArGsZeaycdju-B4-52" value="" style="rounded=0;whiteSpace=wrap;html=1;fontFamily=Times New Roman;fontSize=11;" parent="1" vertex="1">
          <mxGeometry x="30" y="310" width="800" height="330" as="geometry" />
        </mxCell>
        <mxCell id="OcwO-sDlrfqJkoljVJBv-6" value="mysql" style="shape=cylinder3;whiteSpace=wrap;html=1;boundedLbl=1;backgroundOutline=1;size=15;" parent="1" vertex="1">
          <mxGeometry x="700" y="10" width="60" height="80" as="geometry" />
        </mxCell>
        <mxCell id="OcwO-sDlrfqJkoljVJBv-7" value="TiDB" style="shape=cylinder3;whiteSpace=wrap;html=1;boundedLbl=1;backgroundOutline=1;size=15;" parent="1" vertex="1">
          <mxGeometry x="510" y="170" width="60" height="80" as="geometry" />
        </mxCell>
        <mxCell id="OcwO-sDlrfqJkoljVJBv-49" style="edgeStyle=orthogonalEdgeStyle;rounded=0;orthogonalLoop=1;jettySize=auto;html=1;exitX=1;exitY=0.25;exitDx=0;exitDy=0;strokeColor=#FFB366;" parent="1" source="OcwO-sDlrfqJkoljVJBv-10" target="OcwO-sDlrfqJkoljVJBv-48" edge="1">
          <mxGeometry relative="1" as="geometry" />
        </mxCell>
        <mxCell id="OcwO-sDlrfqJkoljVJBv-50" value="update_qc_result(nil)" style="edgeLabel;html=1;align=center;verticalAlign=middle;resizable=0;points=[];" parent="OcwO-sDlrfqJkoljVJBv-49" vertex="1" connectable="0">
          <mxGeometry x="0.0507" y="-1" relative="1" as="geometry">
            <mxPoint x="-6" y="-2" as="offset" />
          </mxGeometry>
        </mxCell>
        <mxCell id="OcwO-sDlrfqJkoljVJBv-52" style="edgeStyle=orthogonalEdgeStyle;rounded=0;orthogonalLoop=1;jettySize=auto;html=1;exitX=1;exitY=0.5;exitDx=0;exitDy=0;entryX=0;entryY=0;entryDx=0;entryDy=52.5;entryPerimeter=0;strokeColor=#99FF33;" parent="1" source="OcwO-sDlrfqJkoljVJBv-10" target="OcwO-sDlrfqJkoljVJBv-6" edge="1">
          <mxGeometry relative="1" as="geometry">
            <Array as="points">
              <mxPoint x="660" y="128" />
              <mxPoint x="660" y="63" />
            </Array>
          </mxGeometry>
        </mxCell>
        <mxCell id="OcwO-sDlrfqJkoljVJBv-53" style="edgeStyle=orthogonalEdgeStyle;rounded=0;orthogonalLoop=1;jettySize=auto;html=1;exitX=1;exitY=0.75;exitDx=0;exitDy=0;entryX=0;entryY=1;entryDx=0;entryDy=-15;entryPerimeter=0;strokeColor=#00FFFF;" parent="1" source="OcwO-sDlrfqJkoljVJBv-10" target="OcwO-sDlrfqJkoljVJBv-6" edge="1">
          <mxGeometry relative="1" as="geometry">
            <mxPoint x="690" y="120" as="targetPoint" />
            <Array as="points">
              <mxPoint x="670" y="156" />
              <mxPoint x="670" y="75" />
            </Array>
          </mxGeometry>
        </mxCell>
        <mxCell id="OcwO-sDlrfqJkoljVJBv-54" style="edgeStyle=orthogonalEdgeStyle;rounded=0;orthogonalLoop=1;jettySize=auto;html=1;exitX=1;exitY=0;exitDx=0;exitDy=0;entryX=0;entryY=0;entryDx=0;entryDy=27.5;entryPerimeter=0;strokeColor=#FF6666;" parent="1" source="OcwO-sDlrfqJkoljVJBv-10" target="OcwO-sDlrfqJkoljVJBv-6" edge="1">
          <mxGeometry relative="1" as="geometry" />
        </mxCell>
        <mxCell id="OcwO-sDlrfqJkoljVJBv-61" style="edgeStyle=orthogonalEdgeStyle;rounded=0;orthogonalLoop=1;jettySize=auto;html=1;exitX=1;exitY=1;exitDx=0;exitDy=0;fontColor=#FF6666;strokeColor=#9933FF;" parent="1" source="OcwO-sDlrfqJkoljVJBv-10" target="OcwO-sDlrfqJkoljVJBv-7" edge="1">
          <mxGeometry relative="1" as="geometry" />
        </mxCell>
        <mxCell id="zqUFxlJ8VEgJimfr6lBU-2" style="edgeStyle=orthogonalEdgeStyle;rounded=0;orthogonalLoop=1;jettySize=auto;html=1;exitX=0.5;exitY=1;exitDx=0;exitDy=0;entryX=0.5;entryY=0;entryDx=0;entryDy=0;" parent="1" source="OcwO-sDlrfqJkoljVJBv-10" target="zqUFxlJ8VEgJimfr6lBU-1" edge="1">
          <mxGeometry relative="1" as="geometry" />
        </mxCell>
        <mxCell id="zqUFxlJ8VEgJimfr6lBU-3" value="订阅配置,&lt;br&gt;注册服务" style="edgeLabel;html=1;align=center;verticalAlign=middle;resizable=0;points=[];" parent="zqUFxlJ8VEgJimfr6lBU-2" vertex="1" connectable="0">
          <mxGeometry x="0.1022" y="1" relative="1" as="geometry">
            <mxPoint as="offset" />
          </mxGeometry>
        </mxCell>
        <mxCell id="OcwO-sDlrfqJkoljVJBv-10" value="qaadmin" style="rounded=0;whiteSpace=wrap;html=1;direction=east;" parent="1" vertex="1">
          <mxGeometry x="305" y="70" width="90" height="115" as="geometry" />
        </mxCell>
        <mxCell id="OcwO-sDlrfqJkoljVJBv-21" style="edgeStyle=orthogonalEdgeStyle;rounded=0;orthogonalLoop=1;jettySize=auto;html=1;entryX=0;entryY=0.25;entryDx=0;entryDy=0;exitX=1;exitY=0.25;exitDx=0;exitDy=0;strokeColor=#FFB366;" parent="1" source="OcwO-sDlrfqJkoljVJBv-29" target="OcwO-sDlrfqJkoljVJBv-10" edge="1">
          <mxGeometry relative="1" as="geometry">
            <mxPoint x="85" y="90" as="targetPoint" />
            <mxPoint x="35" y="90" as="sourcePoint" />
          </mxGeometry>
        </mxCell>
        <mxCell id="OcwO-sDlrfqJkoljVJBv-22" value="delete_qc_result" style="edgeLabel;html=1;align=center;verticalAlign=middle;resizable=0;points=[];" parent="OcwO-sDlrfqJkoljVJBv-21" vertex="1" connectable="0">
          <mxGeometry x="-0.1098" y="-4" relative="1" as="geometry">
            <mxPoint x="7" y="-4" as="offset" />
          </mxGeometry>
        </mxCell>
        <mxCell id="OcwO-sDlrfqJkoljVJBv-32" style="edgeStyle=orthogonalEdgeStyle;rounded=0;orthogonalLoop=1;jettySize=auto;html=1;exitX=1;exitY=0.5;exitDx=0;exitDy=0;entryX=0;entryY=0.5;entryDx=0;entryDy=0;strokeColor=#99FF33;" parent="1" source="OcwO-sDlrfqJkoljVJBv-29" target="OcwO-sDlrfqJkoljVJBv-10" edge="1">
          <mxGeometry relative="1" as="geometry" />
        </mxCell>
        <mxCell id="OcwO-sDlrfqJkoljVJBv-33" value="init_round_rule" style="edgeLabel;html=1;align=center;verticalAlign=middle;resizable=0;points=[];" parent="OcwO-sDlrfqJkoljVJBv-32" vertex="1" connectable="0">
          <mxGeometry x="0.15" y="3" relative="1" as="geometry">
            <mxPoint x="-21" as="offset" />
          </mxGeometry>
        </mxCell>
        <mxCell id="OcwO-sDlrfqJkoljVJBv-34" style="edgeStyle=orthogonalEdgeStyle;rounded=0;orthogonalLoop=1;jettySize=auto;html=1;exitX=1;exitY=0.75;exitDx=0;exitDy=0;entryX=0;entryY=0.75;entryDx=0;entryDy=0;strokeColor=#00FFFF;" parent="1" source="OcwO-sDlrfqJkoljVJBv-29" target="OcwO-sDlrfqJkoljVJBv-10" edge="1">
          <mxGeometry relative="1" as="geometry" />
        </mxCell>
        <mxCell id="OcwO-sDlrfqJkoljVJBv-39" value="init_auto_assign" style="edgeLabel;html=1;align=center;verticalAlign=middle;resizable=0;points=[];" parent="OcwO-sDlrfqJkoljVJBv-34" vertex="1" connectable="0">
          <mxGeometry x="0.0476" y="3" relative="1" as="geometry">
            <mxPoint x="-13" y="-2" as="offset" />
          </mxGeometry>
        </mxCell>
        <mxCell id="OcwO-sDlrfqJkoljVJBv-36" style="edgeStyle=orthogonalEdgeStyle;rounded=0;orthogonalLoop=1;jettySize=auto;html=1;exitX=1;exitY=0;exitDx=0;exitDy=0;entryX=0;entryY=0;entryDx=0;entryDy=0;strokeColor=#FF6666;" parent="1" source="OcwO-sDlrfqJkoljVJBv-29" target="OcwO-sDlrfqJkoljVJBv-10" edge="1">
          <mxGeometry relative="1" as="geometry" />
        </mxCell>
        <mxCell id="OcwO-sDlrfqJkoljVJBv-37" value="delete_qc_rule" style="edgeLabel;html=1;align=center;verticalAlign=middle;resizable=0;points=[];" parent="OcwO-sDlrfqJkoljVJBv-36" vertex="1" connectable="0">
          <mxGeometry x="0.496" y="-1" relative="1" as="geometry">
            <mxPoint x="-67" as="offset" />
          </mxGeometry>
        </mxCell>
        <mxCell id="OcwO-sDlrfqJkoljVJBv-38" style="edgeStyle=orthogonalEdgeStyle;rounded=0;orthogonalLoop=1;jettySize=auto;html=1;exitX=1;exitY=1;exitDx=0;exitDy=0;entryX=0;entryY=1;entryDx=0;entryDy=0;strokeColor=#9933FF;" parent="1" source="OcwO-sDlrfqJkoljVJBv-29" target="OcwO-sDlrfqJkoljVJBv-10" edge="1">
          <mxGeometry relative="1" as="geometry" />
        </mxCell>
        <mxCell id="OcwO-sDlrfqJkoljVJBv-40" value="update_agent_violation_count" style="edgeLabel;html=1;align=center;verticalAlign=middle;resizable=0;points=[];" parent="OcwO-sDlrfqJkoljVJBv-38" vertex="1" connectable="0">
          <mxGeometry x="0.088" y="1" relative="1" as="geometry">
            <mxPoint x="-16" y="-4" as="offset" />
          </mxGeometry>
        </mxCell>
        <mxCell id="OcwO-sDlrfqJkoljVJBv-29" value="QA" style="rounded=0;whiteSpace=wrap;html=1;direction=east;strokeWidth=0;glass=1;strokeColor=none;" parent="1" vertex="1">
          <mxGeometry x="30" y="65" width="70" height="120" as="geometry" />
        </mxCell>
        <mxCell id="OcwO-sDlrfqJkoljVJBv-51" style="edgeStyle=orthogonalEdgeStyle;rounded=0;orthogonalLoop=1;jettySize=auto;html=1;exitX=1;exitY=0.5;exitDx=0;exitDy=0;entryX=0;entryY=0.5;entryDx=0;entryDy=0;entryPerimeter=0;strokeColor=#FFB366;" parent="1" source="OcwO-sDlrfqJkoljVJBv-48" target="OcwO-sDlrfqJkoljVJBv-6" edge="1">
          <mxGeometry relative="1" as="geometry">
            <Array as="points">
              <mxPoint x="650" y="100" />
              <mxPoint x="650" y="50" />
            </Array>
          </mxGeometry>
        </mxCell>
        <mxCell id="OcwO-sDlrfqJkoljVJBv-48" value="admin" style="rounded=0;whiteSpace=wrap;html=1;" parent="1" vertex="1">
          <mxGeometry x="545" y="80" width="80" height="40" as="geometry" />
        </mxCell>
        <mxCell id="OcwO-sDlrfqJkoljVJBv-58" value="" style="shape=umlActor;verticalLabelPosition=bottom;verticalAlign=top;html=1;outlineConnect=0;fontColor=#FF6666;" parent="1" vertex="1">
          <mxGeometry x="50" y="50" width="30" height="60" as="geometry" />
        </mxCell>
        <mxCell id="zqUFxlJ8VEgJimfr6lBU-1" value="spex" style="rounded=0;whiteSpace=wrap;html=1;" parent="1" vertex="1">
          <mxGeometry x="320" y="260" width="60" height="40" as="geometry" />
        </mxCell>
        <mxCell id="UNI3ZArGsZeaycdju-B4-27" style="edgeStyle=orthogonalEdgeStyle;rounded=0;orthogonalLoop=1;jettySize=auto;html=1;exitX=1;exitY=0.5;exitDx=0;exitDy=0;entryX=0;entryY=0.5;entryDx=0;entryDy=0;entryPerimeter=0;" parent="1" source="UNI3ZArGsZeaycdju-B4-11" target="UNI3ZArGsZeaycdju-B4-29" edge="1">
          <mxGeometry relative="1" as="geometry">
            <mxPoint x="545" y="452.5" as="targetPoint" />
            <Array as="points" />
          </mxGeometry>
        </mxCell>
        <mxCell id="UNI3ZArGsZeaycdju-B4-28" value="delete kafka topic(bizId,prdId)" style="edgeLabel;html=1;align=center;verticalAlign=middle;resizable=0;points=[];" parent="UNI3ZArGsZeaycdju-B4-27" vertex="1" connectable="0">
          <mxGeometry x="-0.0018" y="4" relative="1" as="geometry">
            <mxPoint y="4" as="offset" />
          </mxGeometry>
        </mxCell>
        <mxCell id="UNI3ZArGsZeaycdju-B4-37" style="edgeStyle=orthogonalEdgeStyle;rounded=0;orthogonalLoop=1;jettySize=auto;html=1;exitX=1;exitY=0.75;exitDx=0;exitDy=0;entryX=0;entryY=0;entryDx=0;entryDy=82.5;entryPerimeter=0;" parent="1" source="UNI3ZArGsZeaycdju-B4-11" target="UNI3ZArGsZeaycdju-B4-29" edge="1">
          <mxGeometry relative="1" as="geometry" />
        </mxCell>
        <mxCell id="UNI3ZArGsZeaycdju-B4-39" value="delete callback config(bizId,prdId)" style="edgeLabel;html=1;align=center;verticalAlign=middle;resizable=0;points=[];" parent="UNI3ZArGsZeaycdju-B4-37" vertex="1" connectable="0">
          <mxGeometry x="0.2002" y="-1" relative="1" as="geometry">
            <mxPoint x="-28" y="-6" as="offset" />
          </mxGeometry>
        </mxCell>
        <mxCell id="UNI3ZArGsZeaycdju-B4-40" style="edgeStyle=orthogonalEdgeStyle;rounded=0;orthogonalLoop=1;jettySize=auto;html=1;exitX=1;exitY=0;exitDx=0;exitDy=0;entryX=0;entryY=0;entryDx=0;entryDy=15;entryPerimeter=0;" parent="1" source="UNI3ZArGsZeaycdju-B4-11" target="UNI3ZArGsZeaycdju-B4-29" edge="1">
          <mxGeometry relative="1" as="geometry">
            <Array as="points">
              <mxPoint x="340" y="408" />
              <mxPoint x="360" y="408" />
            </Array>
          </mxGeometry>
        </mxCell>
        <mxCell id="UNI3ZArGsZeaycdju-B4-41" value="delete biz(bizId,prdId)" style="edgeLabel;html=1;align=center;verticalAlign=middle;resizable=0;points=[];" parent="UNI3ZArGsZeaycdju-B4-40" vertex="1" connectable="0">
          <mxGeometry x="-0.2789" y="3" relative="1" as="geometry">
            <mxPoint x="40" as="offset" />
          </mxGeometry>
        </mxCell>
        <mxCell id="UNI3ZArGsZeaycdju-B4-42" style="edgeStyle=orthogonalEdgeStyle;rounded=0;orthogonalLoop=1;jettySize=auto;html=1;exitX=1;exitY=0.25;exitDx=0;exitDy=0;entryX=0;entryY=0;entryDx=0;entryDy=37.5;entryPerimeter=0;" parent="1" source="UNI3ZArGsZeaycdju-B4-11" target="UNI3ZArGsZeaycdju-B4-29" edge="1">
          <mxGeometry relative="1" as="geometry" />
        </mxCell>
        <mxCell id="UNI3ZArGsZeaycdju-B4-43" value="delete role(bizId)" style="edgeLabel;html=1;align=center;verticalAlign=middle;resizable=0;points=[];" parent="UNI3ZArGsZeaycdju-B4-42" vertex="1" connectable="0">
          <mxGeometry x="0.2978" relative="1" as="geometry">
            <mxPoint x="-52" as="offset" />
          </mxGeometry>
        </mxCell>
        <mxCell id="UNI3ZArGsZeaycdju-B4-46" style="edgeStyle=orthogonalEdgeStyle;rounded=0;orthogonalLoop=1;jettySize=auto;html=1;exitX=0.5;exitY=1;exitDx=0;exitDy=0;entryX=0;entryY=0.5;entryDx=0;entryDy=0;entryPerimeter=0;" parent="1" source="UNI3ZArGsZeaycdju-B4-11" target="UNI3ZArGsZeaycdju-B4-45" edge="1">
          <mxGeometry relative="1" as="geometry" />
        </mxCell>
        <mxCell id="UNI3ZArGsZeaycdju-B4-47" value="delete index&amp;amp;alias(bizId,prdId)" style="edgeLabel;html=1;align=center;verticalAlign=middle;resizable=0;points=[];" parent="UNI3ZArGsZeaycdju-B4-46" vertex="1" connectable="0">
          <mxGeometry x="0.3296" y="4" relative="1" as="geometry">
            <mxPoint as="offset" />
          </mxGeometry>
        </mxCell>
        <mxCell id="UNI3ZArGsZeaycdju-B4-50" style="edgeStyle=orthogonalEdgeStyle;rounded=0;orthogonalLoop=1;jettySize=auto;html=1;exitX=1;exitY=1;exitDx=0;exitDy=0;entryX=0;entryY=1;entryDx=0;entryDy=-15;entryPerimeter=0;fontFamily=Times New Roman;fontSize=11;" parent="1" source="UNI3ZArGsZeaycdju-B4-11" target="UNI3ZArGsZeaycdju-B4-29" edge="1">
          <mxGeometry relative="1" as="geometry">
            <Array as="points">
              <mxPoint x="340" y="498" />
              <mxPoint x="480" y="498" />
            </Array>
          </mxGeometry>
        </mxCell>
        <mxCell id="UNI3ZArGsZeaycdju-B4-51" value="&lt;span style=&quot;font-family: &amp;#34;helvetica&amp;#34;&quot;&gt;delete ruleengine sharding(bizId,prdId)&lt;/span&gt;" style="edgeLabel;html=1;align=center;verticalAlign=middle;resizable=0;points=[];fontSize=11;fontFamily=Times New Roman;" parent="UNI3ZArGsZeaycdju-B4-50" vertex="1" connectable="0">
          <mxGeometry x="-0.3014" y="-3" relative="1" as="geometry">
            <mxPoint x="34" y="-6" as="offset" />
          </mxGeometry>
        </mxCell>
        <mxCell id="UNI3ZArGsZeaycdju-B4-11" value="qaadmin" style="rounded=0;whiteSpace=wrap;html=1;direction=east;" parent="1" vertex="1">
          <mxGeometry x="280" y="410" width="60" height="85" as="geometry" />
        </mxCell>
        <mxCell id="UNI3ZArGsZeaycdju-B4-12" style="edgeStyle=orthogonalEdgeStyle;rounded=0;orthogonalLoop=1;jettySize=auto;html=1;strokeColor=#FFB366;" parent="1" source="UNI3ZArGsZeaycdju-B4-24" target="UNI3ZArGsZeaycdju-B4-11" edge="1">
          <mxGeometry relative="1" as="geometry">
            <mxPoint x="75" y="470" as="targetPoint" />
            <mxPoint x="130" y="453" as="sourcePoint" />
          </mxGeometry>
        </mxCell>
        <mxCell id="UNI3ZArGsZeaycdju-B4-53" value="&lt;span style=&quot;font-family: &amp;#34;helvetica&amp;#34;&quot;&gt;delete_biz_infos(bizId,prdId)&lt;/span&gt;" style="edgeLabel;html=1;align=center;verticalAlign=middle;resizable=0;points=[];fontSize=11;fontFamily=Times New Roman;" parent="UNI3ZArGsZeaycdju-B4-12" vertex="1" connectable="0">
          <mxGeometry x="-0.1546" relative="1" as="geometry">
            <mxPoint x="8" as="offset" />
          </mxGeometry>
        </mxCell>
        <mxCell id="UNI3ZArGsZeaycdju-B4-24" value="" style="shape=umlActor;verticalLabelPosition=bottom;verticalAlign=top;html=1;outlineConnect=0;fontColor=#FF6666;" parent="1" vertex="1">
          <mxGeometry x="80" y="422.5" width="30" height="60" as="geometry" />
        </mxCell>
        <mxCell id="UNI3ZArGsZeaycdju-B4-29" value="&lt;font style=&quot;font-size: 11px&quot;&gt;admin(global)&lt;br&gt;&lt;span style=&quot;color: rgb(32 , 35 , 37) ; font-family: &amp;#34;helvetica neue&amp;#34; , &amp;#34;helvetica&amp;#34; , &amp;#34;arial&amp;#34; , &amp;#34;microsoft yahei&amp;#34; , &amp;#34;hiragino sans gb&amp;#34; , &amp;#34;heiti sc&amp;#34; , &amp;#34;wenquanyi micro hei&amp;#34; , sans-serif ; text-align: left ; background-color: rgb(255 , 255 , 255)&quot;&gt;&lt;font&gt;biz_product_tab&lt;br&gt;&lt;/font&gt;&lt;/span&gt;&lt;span style=&quot;color: rgb(32 , 35 , 37) ; font-family: &amp;#34;helvetica neue&amp;#34; , &amp;#34;helvetica&amp;#34; , &amp;#34;arial&amp;#34; , &amp;#34;microsoft yahei&amp;#34; , &amp;#34;hiragino sans gb&amp;#34; , &amp;#34;heiti sc&amp;#34; , &amp;#34;wenquanyi micro hei&amp;#34; , sans-serif ; text-align: left ; background-color: rgb(255 , 255 , 255)&quot;&gt;role_config_tab&lt;/span&gt;&lt;span style=&quot;color: rgb(32 , 35 , 37) ; font-family: &amp;#34;helvetica neue&amp;#34; , &amp;#34;helvetica&amp;#34; , &amp;#34;arial&amp;#34; , &amp;#34;microsoft yahei&amp;#34; , &amp;#34;hiragino sans gb&amp;#34; , &amp;#34;heiti sc&amp;#34; , &amp;#34;wenquanyi micro hei&amp;#34; , sans-serif ; text-align: left ; background-color: rgb(255 , 255 , 255)&quot;&gt;&lt;font&gt;&lt;br&gt;gateway_access_tab&lt;br&gt;&lt;/font&gt;&lt;/span&gt;&lt;span style=&quot;color: rgb(32 , 35 , 37) ; font-family: &amp;#34;helvetica neue&amp;#34; , &amp;#34;helvetica&amp;#34; , &amp;#34;arial&amp;#34; , &amp;#34;microsoft yahei&amp;#34; , &amp;#34;hiragino sans gb&amp;#34; , &amp;#34;heiti sc&amp;#34; , &amp;#34;wenquanyi micro hei&amp;#34; , sans-serif ; text-align: left ; background-color: rgb(255 , 255 , 255)&quot;&gt;callback_config_tab&lt;/span&gt;&lt;span style=&quot;color: rgb(32 , 35 , 37) ; font-family: &amp;#34;helvetica neue&amp;#34; , &amp;#34;helvetica&amp;#34; , &amp;#34;arial&amp;#34; , &amp;#34;microsoft yahei&amp;#34; , &amp;#34;hiragino sans gb&amp;#34; , &amp;#34;heiti sc&amp;#34; , &amp;#34;wenquanyi micro hei&amp;#34; , sans-serif ; text-align: left ; background-color: rgb(255 , 255 , 255)&quot;&gt;&lt;font&gt;&lt;br&gt;ruleengine_sharding_tab&lt;/font&gt;&lt;/span&gt;&lt;/font&gt;&lt;span&gt;&lt;br&gt;&lt;/span&gt;" style="shape=cylinder3;whiteSpace=wrap;html=1;boundedLbl=1;backgroundOutline=1;size=15;" parent="1" vertex="1">
          <mxGeometry x="620" y="392.5" width="195" height="120" as="geometry" />
        </mxCell>
        <mxCell id="UNI3ZArGsZeaycdju-B4-45" value="es" style="shape=cylinder3;whiteSpace=wrap;html=1;boundedLbl=1;backgroundOutline=1;size=15;" parent="1" vertex="1">
          <mxGeometry x="572.5" y="530" width="60" height="80" as="geometry" />
        </mxCell>
        <mxCell id="CeL9gRLWSD85e0RHvUJz-4" style="edgeStyle=orthogonalEdgeStyle;rounded=0;orthogonalLoop=1;jettySize=auto;html=1;entryX=0;entryY=0.5;entryDx=0;entryDy=0;" edge="1" parent="1" source="CeL9gRLWSD85e0RHvUJz-1" target="CeL9gRLWSD85e0RHvUJz-2">
          <mxGeometry relative="1" as="geometry" />
        </mxCell>
        <mxCell id="CeL9gRLWSD85e0RHvUJz-5" value="addTaskResult" style="edgeLabel;html=1;align=center;verticalAlign=middle;resizable=0;points=[];" vertex="1" connectable="0" parent="CeL9gRLWSD85e0RHvUJz-4">
          <mxGeometry x="-0.0965" y="-1" relative="1" as="geometry">
            <mxPoint as="offset" />
          </mxGeometry>
        </mxCell>
        <mxCell id="CeL9gRLWSD85e0RHvUJz-1" value="Actor" style="shape=umlActor;verticalLabelPosition=bottom;verticalAlign=top;html=1;outlineConnect=0;direction=east;" vertex="1" parent="1">
          <mxGeometry x="60" y="730" width="30" height="60" as="geometry" />
        </mxCell>
        <mxCell id="CeL9gRLWSD85e0RHvUJz-10" style="edgeStyle=orthogonalEdgeStyle;rounded=0;orthogonalLoop=1;jettySize=auto;html=1;exitX=0.5;exitY=1;exitDx=0;exitDy=0;entryX=0.5;entryY=0;entryDx=0;entryDy=0;" edge="1" parent="1" source="CeL9gRLWSD85e0RHvUJz-2" target="CeL9gRLWSD85e0RHvUJz-9">
          <mxGeometry relative="1" as="geometry" />
        </mxCell>
        <mxCell id="CeL9gRLWSD85e0RHvUJz-2" value="core" style="rounded=0;whiteSpace=wrap;html=1;" vertex="1" parent="1">
          <mxGeometry x="210" y="740" width="80" height="40" as="geometry" />
        </mxCell>
        <mxCell id="CeL9gRLWSD85e0RHvUJz-6" value="&lt;span style=&quot;color: rgb(50 , 50 , 50) ; font-size: 13px ; background-color: rgba(255 , 255 , 255 , 0.01)&quot;&gt;task_tab:task(timing,waitSync)&lt;br&gt;&lt;/span&gt;&lt;span style=&quot;color: rgb(50 , 50 , 50) ; font-size: 13px ; background-color: rgba(255 , 255 , 255 , 0.01)&quot;&gt;timing_task_tab:task(unfinished)&lt;/span&gt;&lt;span style=&quot;color: rgb(50 , 50 , 50) ; font-size: 13px ; background-color: rgba(255 , 255 , 255 , 0.01)&quot;&gt;&lt;br&gt;&lt;/span&gt;" style="shape=cylinder3;whiteSpace=wrap;html=1;boundedLbl=1;backgroundOutline=1;size=15;" vertex="1" parent="1">
          <mxGeometry x="145" y="910" width="210" height="80" as="geometry" />
        </mxCell>
        <mxCell id="CeL9gRLWSD85e0RHvUJz-11" style="edgeStyle=orthogonalEdgeStyle;rounded=0;orthogonalLoop=1;jettySize=auto;html=1;entryX=0.5;entryY=0;entryDx=0;entryDy=0;entryPerimeter=0;" edge="1" parent="1" source="CeL9gRLWSD85e0RHvUJz-9" target="CeL9gRLWSD85e0RHvUJz-6">
          <mxGeometry relative="1" as="geometry" />
        </mxCell>
        <mxCell id="CeL9gRLWSD85e0RHvUJz-12" value="是" style="edgeLabel;html=1;align=center;verticalAlign=middle;resizable=0;points=[];" vertex="1" connectable="0" parent="CeL9gRLWSD85e0RHvUJz-11">
          <mxGeometry x="-0.36" y="4" relative="1" as="geometry">
            <mxPoint x="-4" as="offset" />
          </mxGeometry>
        </mxCell>
        <mxCell id="CeL9gRLWSD85e0RHvUJz-9" value="满足生成TimingTask" style="rhombus;whiteSpace=wrap;html=1;" vertex="1" parent="1">
          <mxGeometry x="195" y="810" width="110" height="50" as="geometry" />
        </mxCell>
        <mxCell id="CeL9gRLWSD85e0RHvUJz-18" value="否" style="edgeStyle=orthogonalEdgeStyle;rounded=0;orthogonalLoop=1;jettySize=auto;html=1;exitX=0;exitY=0.5;exitDx=0;exitDy=0;entryX=0;entryY=0.5;entryDx=0;entryDy=0;entryPerimeter=0;" edge="1" parent="1" source="CeL9gRLWSD85e0RHvUJz-13" target="CeL9gRLWSD85e0RHvUJz-17">
          <mxGeometry x="-0.196" relative="1" as="geometry">
            <mxPoint as="offset" />
          </mxGeometry>
        </mxCell>
        <mxCell id="CeL9gRLWSD85e0RHvUJz-19" style="edgeStyle=orthogonalEdgeStyle;rounded=0;orthogonalLoop=1;jettySize=auto;html=1;entryX=1;entryY=0.5;entryDx=0;entryDy=0;entryPerimeter=0;dashed=1;" edge="1" parent="1" source="CeL9gRLWSD85e0RHvUJz-13" target="CeL9gRLWSD85e0RHvUJz-6">
          <mxGeometry relative="1" as="geometry">
            <Array as="points">
              <mxPoint x="529" y="950" />
            </Array>
          </mxGeometry>
        </mxCell>
        <mxCell id="CeL9gRLWSD85e0RHvUJz-20" value="是" style="edgeLabel;html=1;align=center;verticalAlign=middle;resizable=0;points=[];" vertex="1" connectable="0" parent="CeL9gRLWSD85e0RHvUJz-19">
          <mxGeometry x="-0.8251" y="3" relative="1" as="geometry">
            <mxPoint x="-3" as="offset" />
          </mxGeometry>
        </mxCell>
        <mxCell id="CeL9gRLWSD85e0RHvUJz-21" value="更新task_tab为&lt;br&gt;Wating, notSync" style="edgeLabel;html=1;align=center;verticalAlign=middle;resizable=0;points=[];" vertex="1" connectable="0" parent="CeL9gRLWSD85e0RHvUJz-19">
          <mxGeometry x="0.0839" y="-2" relative="1" as="geometry">
            <mxPoint x="-23" as="offset" />
          </mxGeometry>
        </mxCell>
        <mxCell id="CeL9gRLWSD85e0RHvUJz-13" value="TimingTask可&lt;br&gt;更新Waiting" style="rhombus;whiteSpace=wrap;html=1;" vertex="1" parent="1">
          <mxGeometry x="460" y="815" width="137" height="50" as="geometry" />
        </mxCell>
        <mxCell id="CeL9gRLWSD85e0RHvUJz-16" style="edgeStyle=orthogonalEdgeStyle;rounded=0;orthogonalLoop=1;jettySize=auto;html=1;entryX=0.5;entryY=0;entryDx=0;entryDy=0;" edge="1" parent="1" target="CeL9gRLWSD85e0RHvUJz-13">
          <mxGeometry relative="1" as="geometry">
            <mxPoint x="528.5" y="775" as="sourcePoint" />
          </mxGeometry>
        </mxCell>
        <mxCell id="CeL9gRLWSD85e0RHvUJz-17" value="&lt;span&gt;timing_task_tab&lt;/span&gt;" style="shape=cylinder3;whiteSpace=wrap;html=1;boundedLbl=1;backgroundOutline=1;size=15;" vertex="1" parent="1">
          <mxGeometry x="479.25" y="720" width="100.75" height="60" as="geometry" />
        </mxCell>
        <mxCell id="CeL9gRLWSD85e0RHvUJz-25" style="edgeStyle=orthogonalEdgeStyle;rounded=0;orthogonalLoop=1;jettySize=auto;html=1;entryX=0.5;entryY=0;entryDx=0;entryDy=0;" edge="1" parent="1" source="CeL9gRLWSD85e0RHvUJz-23" target="CeL9gRLWSD85e0RHvUJz-24">
          <mxGeometry relative="1" as="geometry" />
        </mxCell>
        <mxCell id="CeL9gRLWSD85e0RHvUJz-23" value="task_tab" style="shape=cylinder3;whiteSpace=wrap;html=1;boundedLbl=1;backgroundOutline=1;size=15;" vertex="1" parent="1">
          <mxGeometry x="700" y="720" width="90" height="60" as="geometry" />
        </mxCell>
        <mxCell id="CeL9gRLWSD85e0RHvUJz-26" style="edgeStyle=orthogonalEdgeStyle;rounded=0;orthogonalLoop=1;jettySize=auto;html=1;exitX=0;exitY=0.5;exitDx=0;exitDy=0;entryX=0;entryY=0.5;entryDx=0;entryDy=0;entryPerimeter=0;" edge="1" parent="1" source="CeL9gRLWSD85e0RHvUJz-24" target="CeL9gRLWSD85e0RHvUJz-23">
          <mxGeometry relative="1" as="geometry" />
        </mxCell>
        <mxCell id="CeL9gRLWSD85e0RHvUJz-29" value="否" style="edgeLabel;html=1;align=center;verticalAlign=middle;resizable=0;points=[];" vertex="1" connectable="0" parent="CeL9gRLWSD85e0RHvUJz-26">
          <mxGeometry x="-0.109" y="2" relative="1" as="geometry">
            <mxPoint as="offset" />
          </mxGeometry>
        </mxCell>
        <mxCell id="CeL9gRLWSD85e0RHvUJz-41" style="edgeStyle=orthogonalEdgeStyle;rounded=0;orthogonalLoop=1;jettySize=auto;html=1;entryX=0;entryY=0.5;entryDx=0;entryDy=0;" edge="1" parent="1" source="CeL9gRLWSD85e0RHvUJz-24" target="CeL9gRLWSD85e0RHvUJz-27">
          <mxGeometry relative="1" as="geometry" />
        </mxCell>
        <mxCell id="CeL9gRLWSD85e0RHvUJz-42" value="是&lt;br&gt;同步Task" style="edgeLabel;html=1;align=center;verticalAlign=middle;resizable=0;points=[];" vertex="1" connectable="0" parent="CeL9gRLWSD85e0RHvUJz-41">
          <mxGeometry x="0.1769" y="-1" relative="1" as="geometry">
            <mxPoint x="-14" y="-1" as="offset" />
          </mxGeometry>
        </mxCell>
        <mxCell id="CeL9gRLWSD85e0RHvUJz-24" value="Task为Waiting&lt;br&gt;且&lt;span style=&quot;font-size: 11px ; background-color: rgb(255 , 255 , 255)&quot;&gt;notSync&lt;/span&gt;" style="rhombus;whiteSpace=wrap;html=1;" vertex="1" parent="1">
          <mxGeometry x="676.5" y="815" width="137" height="55" as="geometry" />
        </mxCell>
        <mxCell id="CeL9gRLWSD85e0RHvUJz-49" value="qTask" style="edgeStyle=orthogonalEdgeStyle;rounded=0;orthogonalLoop=1;jettySize=auto;html=1;exitX=1;exitY=0.5;exitDx=0;exitDy=0;entryX=0;entryY=0.5;entryDx=0;entryDy=0;" edge="1" parent="1" source="CeL9gRLWSD85e0RHvUJz-27" target="CeL9gRLWSD85e0RHvUJz-48">
          <mxGeometry relative="1" as="geometry" />
        </mxCell>
        <mxCell id="CeL9gRLWSD85e0RHvUJz-27" value="ruleengine" style="rounded=0;whiteSpace=wrap;html=1;" vertex="1" parent="1">
          <mxGeometry x="890" y="822.5" width="100" height="40" as="geometry" />
        </mxCell>
        <mxCell id="CeL9gRLWSD85e0RHvUJz-38" value="产生TimingTask" style="text;html=1;strokeColor=none;fillColor=none;align=center;verticalAlign=middle;whiteSpace=wrap;rounded=0;dashed=1;" vertex="1" parent="1">
          <mxGeometry x="35" y="680" width="105" height="30" as="geometry" />
        </mxCell>
        <mxCell id="CeL9gRLWSD85e0RHvUJz-39" value="Timing转Waiting" style="text;html=1;strokeColor=none;fillColor=none;align=center;verticalAlign=middle;whiteSpace=wrap;rounded=0;dashed=1;" vertex="1" parent="1">
          <mxGeometry x="390" y="680" width="105" height="30" as="geometry" />
        </mxCell>
        <mxCell id="CeL9gRLWSD85e0RHvUJz-40" value="Task同步Ruleengine" style="text;html=1;strokeColor=none;fillColor=none;align=center;verticalAlign=middle;whiteSpace=wrap;rounded=0;dashed=1;" vertex="1" parent="1">
          <mxGeometry x="632.5" y="680" width="137.5" height="30" as="geometry" />
        </mxCell>
        <mxCell id="CeL9gRLWSD85e0RHvUJz-48" value="cron.AutoAssign" style="rounded=0;whiteSpace=wrap;html=1;" vertex="1" parent="1">
          <mxGeometry x="1060" y="822.5" width="100" height="40" as="geometry" />
        </mxCell>
      </root>
    </mxGraphModel>
  </diagram>
</mxfile>
